<svg xmlns="http://www.w3.org/2000/svg" shape-rendering="geometricPrecision" text-rendering="geometricPrecision" image-rendering="optimizeQuality" fill-rule="evenodd" clip-rule="evenodd" viewBox="0 0 512 512"><g fill-rule="nonzero"><path d="M256.002 0c70.69 0 134.688 28.658 181.017 74.981C483.343 121.311 512 185.309 512 255.998c0 70.69-28.657 134.694-74.981 181.018C390.693 483.342 326.692 512 256.002 512s-134.694-28.655-181.017-74.984C28.655 390.692 0 326.688 0 255.998c0-70.689 28.658-134.69 74.985-181.017C121.308 28.658 185.312 0 256.002 0z"/><path fill="#fff" d="M311.507 280.154h-51.006v69.609h-60.007V162.24h123.014l-7.499 48.006h-55.508v25.204h51.006z"/></g></svg>